<svg xmlns="http://www.w3.org/2000/svg" xmlns:xlink="http://www.w3.org/1999/xlink" version="1.1" width="256" height="256" viewBox="0 0 256 256" xml:space="preserve">

<defs>
</defs>
<g style="stroke: none; stroke-width: 0; stroke-dasharray: none; stroke-linecap: butt; stroke-linejoin: miter; stroke-miterlimit: 10; fill: none; fill-rule: nonzero; opacity: 1;" transform="translate(1.4065934065934016 1.4065934065934016) scale(2.81 2.81)" >
	<path d="M 59.504 45.208 c 0.164 -0.527 -0.13 -1.088 -0.657 -1.252 L 21.883 32.42 c -0.529 -0.166 -1.088 0.129 -1.252 0.657 c -0.165 0.527 0.129 1.088 0.657 1.252 l 36.964 11.535 c 0.1 0.031 0.199 0.046 0.298 0.046 C 58.975 45.911 59.37 45.636 59.504 45.208 z" style="stroke: none; stroke-width: 1; stroke-dasharray: none; stroke-linecap: butt; stroke-linejoin: miter; stroke-miterlimit: 10; fill: rgb(255,255,255); fill-rule: nonzero; opacity: 1;" transform=" matrix(1 0 0 1 0 0) " stroke-linecap="round" />
	<path d="M 50.045 16.798 c 0.426 0 0.821 -0.274 0.955 -0.703 l 2.347 -7.52 c 0.164 -0.527 -0.13 -1.088 -0.657 -1.252 c -0.525 -0.166 -1.089 0.129 -1.253 0.657 L 49.09 15.5 c -0.164 0.527 0.13 1.088 0.657 1.252 C 49.846 16.783 49.946 16.798 50.045 16.798 z" style="stroke: none; stroke-width: 1; stroke-dasharray: none; stroke-linecap: butt; stroke-linejoin: miter; stroke-miterlimit: 10; fill: rgb(255,255,255); fill-rule: nonzero; opacity: 1;" transform=" matrix(1 0 0 1 0 0) " stroke-linecap="round" />
	<path d="M 55.462 54.803 L 18.498 43.268 c -0.529 -0.164 -1.087 0.129 -1.252 0.657 c -0.165 0.527 0.129 1.088 0.657 1.252 l 36.964 11.536 c 0.1 0.03 0.199 0.045 0.298 0.045 c 0.426 0 0.821 -0.274 0.955 -0.702 C 56.283 55.528 55.989 54.968 55.462 54.803 z" style="stroke: none; stroke-width: 1; stroke-dasharray: none; stroke-linecap: butt; stroke-linejoin: miter; stroke-miterlimit: 10; fill: rgb(255,255,255); fill-rule: nonzero; opacity: 1;" transform=" matrix(1 0 0 1 0 0) " stroke-linecap="round" />
	<path d="M 35.031 60.331 l -19.918 -6.216 c -0.525 -0.163 -1.088 0.13 -1.252 0.657 s 0.129 1.088 0.657 1.253 l 19.918 6.216 c 0.099 0.03 0.2 0.045 0.298 0.045 c 0.426 0 0.82 -0.274 0.954 -0.702 C 35.852 61.057 35.558 60.496 35.031 60.331 z" style="stroke: none; stroke-width: 1; stroke-dasharray: none; stroke-linecap: butt; stroke-linejoin: miter; stroke-miterlimit: 10; fill: rgb(255,255,255); fill-rule: nonzero; opacity: 1;" transform=" matrix(1 0 0 1 0 0) " stroke-linecap="round" />
	<path d="M 89.872 68.518 L 78.97 28.273 l 0.29 -6.635 c 0.082 -1.875 -1.283 -3.467 -3.1 -3.739 l -0.862 -3.182 c -0.524 -1.936 -2.522 -3.086 -4.463 -2.561 l -15.141 4.102 l 2.106 -6.751 c 0.907 -2.911 -0.722 -6.018 -3.632 -6.926 c -1.479 -0.461 -3.048 -0.319 -4.421 0.4 c -1.372 0.719 -2.381 1.93 -2.843 3.409 l -2.396 7.681 c -0.165 0.527 0.129 1.088 0.657 1.252 c 0.523 0.161 1.087 -0.129 1.252 -0.657 l 2.397 -7.681 c 0.302 -0.969 0.963 -1.762 1.861 -2.233 c 0.9 -0.472 1.928 -0.564 2.896 -0.262 c 1.857 0.58 2.897 2.563 2.317 4.421 l -4.295 13.764 c -1.001 3.21 -4.431 5.007 -7.64 4.006 c -3.211 -1.002 -5.008 -4.429 -4.006 -7.64 l 1.818 -5.827 l 0 0 l 0 0 l 2.327 -7.457 c 0.165 -0.527 -0.129 -1.088 -0.657 -1.252 c -0.527 -0.163 -1.087 0.128 -1.252 0.657 l -2.029 6.502 l -18.71 -5.839 c -2.005 -0.625 -4.146 0.497 -4.771 2.501 L 0.174 61.211 c -0.625 2.004 0.497 4.145 2.501 4.771 l 11.414 3.562 l -0.22 5.029 c -0.087 2.005 1.472 3.707 3.477 3.794 l 10.025 0.438 l 1.677 6.19 c 0.439 1.619 1.911 2.688 3.514 2.688 c 0.314 0 0.633 -0.041 0.95 -0.127 l 20.499 -5.553 l 1.548 0.483 c 0.376 0.117 0.757 0.173 1.132 0.173 c 1.502 0 2.896 -0.904 3.5 -2.33 l 0.279 -0.076 l 12.563 0.549 c 0.055 0.002 0.108 0.004 0.163 0.004 c 0.911 0 1.777 -0.336 2.454 -0.956 c 0.717 -0.656 1.135 -1.553 1.177 -2.523 l 0.067 -1.522 l 10.42 -2.823 c 0.938 -0.254 1.721 -0.857 2.204 -1.701 C 90.001 70.437 90.127 69.456 89.872 68.518 z M 71.358 14.087 c 0.423 -0.116 0.864 -0.058 1.243 0.16 c 0.38 0.218 0.652 0.57 0.767 0.993 l 0.685 2.529 l -14.022 -0.613 L 71.358 14.087 z M 15.868 74.661 l 0.197 -4.5 l 22.911 7.15 l -21.542 -0.941 C 16.531 76.33 15.828 75.563 15.868 74.661 z M 32.989 85.626 c -0.877 0.233 -1.774 -0.282 -2.01 -1.154 l -1.51 -5.574 l 12.552 0.548 l 4.416 0.193 l 4.021 1.255 L 32.989 85.626 z M 56.154 80.575 l -1.824 -0.569 c 0 0 0 0 0 0 l -7.401 -2.31 c -0.006 -0.002 -0.012 -0.004 -0.018 -0.006 L 26.977 71.47 c 0 0 0 0 0 0 L 15.42 67.863 c -0.001 0 -0.002 0 -0.004 0 l -12.145 -3.79 c -0.953 -0.298 -1.485 -1.314 -1.188 -2.267 L 18.586 8.923 c 0.144 -0.461 0.459 -0.839 0.887 -1.063 c 0.429 -0.225 0.917 -0.27 1.379 -0.125 l 18.709 5.839 l -1.52 4.872 c -0.645 2.065 -0.446 4.258 0.559 6.174 c 1.005 1.916 2.695 3.326 4.761 3.971 c 0.801 0.25 1.61 0.369 2.408 0.369 c 3.451 0 6.657 -2.225 7.738 -5.688 l 1.52 -4.872 l 18.709 5.838 c 0.118 0.037 0.23 0.085 0.334 0.143 c 0.021 0.012 0.039 0.028 0.06 0.041 c 0.082 0.049 0.162 0.101 0.233 0.161 c 0.014 0.012 0.025 0.027 0.039 0.039 c 0.074 0.066 0.144 0.135 0.206 0.212 c 0.038 0.048 0.068 0.104 0.102 0.156 c 0.043 0.066 0.083 0.133 0.116 0.204 c 0.04 0.084 0.078 0.168 0.104 0.255 c 0.021 0.07 0.03 0.144 0.043 0.216 c 0.007 0.043 0.02 0.085 0.025 0.129 c 0.006 0.062 0 0.126 0 0.189 c -0.001 0.056 0.004 0.112 -0.002 0.168 c -0.004 0.035 -0.016 0.07 -0.022 0.106 c -0.014 0.083 -0.026 0.165 -0.052 0.246 L 58.568 78.912 c 0 0.001 0 0.002 0 0.003 l -0.01 0.031 l -0.079 0.252 c 0 0 0 0.001 0 0.002 l -0.058 0.187 C 58.123 80.34 57.107 80.876 56.154 80.575 z M 74.298 78.374 c -0.323 0.296 -0.748 0.442 -1.178 0.429 l -12.255 -0.535 L 76.833 27.1 c 0.044 -0.14 0.059 -0.281 0.086 -0.421 c 0.021 -0.108 0.054 -0.214 0.066 -0.322 c 0.01 -0.097 0 -0.192 0.003 -0.288 c 0.005 -0.156 0.015 -0.311 0 -0.466 c -0.006 -0.061 -0.025 -0.118 -0.034 -0.178 c -0.027 -0.185 -0.055 -0.369 -0.109 -0.549 c -0.012 -0.04 -0.034 -0.077 -0.047 -0.116 c -0.064 -0.191 -0.133 -0.381 -0.228 -0.563 c -0.224 -0.428 -0.526 -0.798 -0.88 -1.105 c -0.013 -0.011 -0.022 -0.025 -0.035 -0.036 c -0.162 -0.137 -0.339 -0.253 -0.523 -0.361 c -0.034 -0.02 -0.061 -0.046 -0.096 -0.065 c -0.222 -0.122 -0.457 -0.224 -0.705 -0.301 l -9.488 -2.961 l 10.854 0.475 c 0.902 0.04 1.604 0.806 1.565 1.708 l -0.297 6.787 c 0 0 0 0.001 0 0.001 l -1.028 23.53 l -1.109 25.368 C 74.809 77.675 74.621 78.078 74.298 78.374 z M 87.782 70.284 c -0.218 0.38 -0.57 0.651 -0.993 0.767 l -9.805 2.655 l 0.159 -3.645 l 1.538 -35.202 l 9.26 34.182 C 88.057 69.463 88 69.904 87.782 70.284 z" style="stroke: none; stroke-width: 1; stroke-dasharray: none; stroke-linecap: butt; stroke-linejoin: miter; stroke-miterlimit: 10; fill: rgb(255,255,255); fill-rule: nonzero; opacity: 1;" transform=" matrix(1 0 0 1 0 0) " stroke-linecap="round" />
</g>
</svg>